<svg viewBox="0 0 396.75 370.14" xmlns="http://www.w3.org/2000/svg" width="396.75" height="370.14"><path d="M134 240.31c-.87 0-2.12.05-3.83.17s-2.84.17-3.69.17a7.58 7.58 0 01-7-4c-2.47-4.09-7.13-14.84-13.85-32l-27.88-70.79c-1.55-3.75-3.63-5.65-6.19-5.65s-4.57 2.13-6.38 6.51l-37.45 88.69-2.45 6.07c-3 7.52-7.18 11.17-12.8 11.17-.84 0-2.07-.08-3.66-.25s-2.95-.27-3.87-.27c-4.31 0-4.95 2.15-4.95 3.43S.62 247 4.76 247c1 0 3.3-.23 6.91-.7a96.76 96.76 0 0112.47-.69c5.7 0 11.15.23 16.19.69 6.82.62 8.1.7 8.46.7 4.31 0 5-2.15 5-3.44 0-1.48-.92-3.24-5.33-3.24h-.18a30 30 0 00-3.86.17c-2.58.12-4.44.17-5.55.17-8.6 0-8.6-3.16-8.6-4.2a5.88 5.88 0 01.67-2.89c.63-1.41 1.15-2.66 1.51-3.67l10.16-24.12a5.89 5.89 0 011.15-2.1 7.28 7.28 0 012.63-.23h48.5a11 11 0 012.36.16 9.9 9.9 0 011.23 2.17l6.39 15.43 3.57 9a19.4 19.4 0 011.63 6.4c0 1.81-.66 4.21-6.34 4.21-.14 0-.94 0-5.58-.35-5.12-.35-5.24-.35-5.33-.35-4.72 0-5.71 1.91-5.71 3.52 0 2.21 2 3.34 6.08 3.34h.94l8.41-.87a98.72 98.72 0 0111.54-.52 100.62 100.62 0 0113.78.86 48.6 48.6 0 006.35.53 6.94 6.94 0 003.41-.82 3.09 3.09 0 001.73-2.78c0-1.38-.92-3.07-5.35-3.07zm-39.17-43.43c0 .94-2 1.09-3.14 1.09h-42c-1.17 0-3.14-.15-3.14-1.09a6.36 6.36 0 01.68-2.21l24.07-57.1 22.81 57.08a8.05 8.05 0 01.72 2.23zM277.92 128l-4.79.23c-2.19.3-4 .52-5.44.66a81.73 81.73 0 01-9.85.67h-5.27a85.2 85.2 0 01-9.86-.67c-2.62-.29-4.37-.51-5.21-.66L233 128h-.56c-4.09 0-5 1.68-5 3.09s.65 3.43 5 3.43c.28 0 1.9-.06 4.82-.18s4.91-.17 5.88-.17c3.59 0 5.87 1 7 3 .8 1.35 1.27 4 1.39 7.82v91.79a4.64 4.64 0 01-.05.77 1.81 1.81 0 01-.31-.5v-.07l-70.08-101.87-1.88-3c-1.7-2.74-4-4.13-6.7-4.13a26.44 26.44 0 00-5.42 1.05h-4.59c-1 0-4.33-.18-9.86-.51a37.14 37.14 0 00-5.06-.54c-4.32 0-5 2.2-5 3.51s.86 3 4.95 3h.57c.27 0 1.94-.08 4.94-.24 1.51-.07 3.2-.11 5-.11 4.2 0 6.81 1 7.72 2.84.31.79.72 3.16.87 9.87v83.26c-.12 3.89-.54 6.55-1.19 7.84-1.22 2-3.5 3-7 3-1 0-3-.12-5.85-.34-1.57-.12-3.2-.18-4.86-.18-4.3 0-5.2 1.86-5.2 3.43 0 1.4.86 3.08 5 3.08h2.78a16.61 16.61 0 012.14-.16h.13c2.72-.34 4.53-.51 5.45-.52 4.92-.42 6.18-.51 6.36-.51h12.32c.19 0 1.27.06 6.33.51 2.16.23 4 .41 5.6.53a16.88 16.88 0 012.15.16h2.59c4.12 0 5-1.77 5-3.26s-.86-3.25-5-3.25c-1.63 0-3.24.06-4.79.18-2.77.22-4.76.34-5.75.34-3.05 0-5.16-.72-6.27-2.13s-1.83-4.43-1.95-8.67v-93.42L245 240.14c3.1 4.61 5.82 6.85 8.32 6.85a5.27 5.27 0 003.72-1.17c1.21-1.26 1.78-4 1.78-8.49v-79.5l.38-12.83c.15-4.8.83-6.91 1.39-7.87 1.07-2 3.31-2.94 6.83-2.94 1 0 2.85.06 5.8.17s4.46.18 4.74.18c4.31 0 5-2.15 5-3.43s-.91-3.11-5.04-3.11zm117.67 1.9c-1.2-1.25-3.24-1.86-6.28-1.86l-15.07.69c-9.31.57-23.66.87-42.65.87H310.7c-3.61 0-8.39-.29-14.3-.87h-.95c-5 0-6.08 2-6.08 3.6s1 3.43 5.86 3.43h.93l5.15-.53c2.2-.22 4.24-.34 6.06-.34 3.31 0 5.32 1 6.16 3.18.31.8.68 2.85.68 8.14v84.15c-.12 3.88-.53 6.53-1.17 7.83-1.2 2-3.44 3-6.86 3a49 49 0 01-5.72-.34 47.08 47.08 0 00-4.82-.18c-4.24 0-5.14 1.87-5.14 3.43 0 1.41.86 3.08 4.95 3.08h.84l4.06-.34c1.16 0 3-.12 5.55-.36 4.86-.45 8.12-.68 9.69-.68h5.27c1.82 0 5.2.23 10.06.68 2.44.24 4.23.35 5.28.35l4.41.35h.57c4.09 0 4.95-1.77 4.95-3.25s-.89-3.26-5.14-3.26a44.34 44.34 0 00-4.63.18 49 49 0 01-5.72.34c-3.52 0-5.89-.9-7.05-2.65-.9-1.45-1.36-4.19-1.36-8.15v-34.9c0-2.72.44-3.85.82-4.32s1.19-.92 3.43-.92h23.6c5.36 0 9 .77 10.89 2.29s2.72 4.33 2.72 8.51a31.79 31.79 0 01-.37 5.12l-.38 4.59v1.05c0 4.34 1.29 6.55 3.83 6.55 1.74 0 3.82-1.05 3.82-6v-1l-.76-7.4c-.75-7.21-1.12-12.61-1.12-16 0-2.87.12-5.64.37-8.24l.75-8c.38-4.12.57-6.82.57-8.25 0-4.46-1.22-6.72-3.63-6.72-1.75 0-3.83 1-3.83 6 0 1.44.13 3.68.38 6.68.31 3.7.37 4.73.37 4.94 0 7-4.49 10.46-13.73 10.46H327c-3.39 0-4.07-.28-4.14-.31s-.37-.35-.65-1.58v-40.2c0-5.18 1-6.44 1.37-6.74s2.64-1.11 10.17-1.11h45.67c5.32 0 8.56 1.78 9.91 5.41.4 1.12.88 4.19.88 12.51a117.92 117.92 0 01-.56 12.38 52.76 52.76 0 00-.39 5.49 6.89 6.89 0 00.93 3.07c.73 1.39 1.67 2.1 2.8 2.1 1.62 0 3.54-1 3.54-6V139.1c0-2.29.06-4.25.19-5.86a4.38 4.38 0 00-1.13-3.34zM31.45 116.08a3 3 0 01-1.18-.25 3 3 0 01-1.57-3.94 185.14 185.14 0 01339.3-1.7 3 3 0 11-5.48 2.43 179.15 179.15 0 00-328.34 1.65 3 3 0 01-2.76 1.81m166.95 254.06A185.07 185.07 0 0132.75 267.75a3 3 0 115.37-2.68 179.13 179.13 0 00320.51 0 3 3 0 015.36 2.68 185 185 0 01-165.62 102.39"/></svg>